<mxfile host="app.diagrams.net" modified="2023-10-24T13:58:45.545Z" agent="Mozilla/5.0 (X11; Ubuntu; Linux x86_64; rv:109.0) Gecko/20100101 Firefox/118.0" etag="bRrbhOfo2LsdO55VV0fN" version="22.0.6" type="device">
  <diagram name="Page-1" id="EzyCqfu8qsjxYLeTGprw">
    <mxGraphModel dx="2103" dy="1394" grid="0" gridSize="10" guides="1" tooltips="1" connect="1" arrows="1" fold="1" page="0" pageScale="1" pageWidth="1169" pageHeight="827" math="0" shadow="0">
      <root>
        <mxCell id="0" />
        <mxCell id="1" parent="0" />
        <mxCell id="q3knvlEKfwuxzLqlxlKQ-1" value="Magnetic Flux " style="whiteSpace=wrap;html=1;" vertex="1" parent="1">
          <mxGeometry x="444" y="173" width="120" height="60" as="geometry" />
        </mxCell>
        <mxCell id="q3knvlEKfwuxzLqlxlKQ-2" value="Inductance" style="whiteSpace=wrap;html=1;" vertex="1" parent="1">
          <mxGeometry x="-25" y="-9" width="120" height="60" as="geometry" />
        </mxCell>
        <mxCell id="q3knvlEKfwuxzLqlxlKQ-4" value="&lt;div&gt;Equacao do motor&lt;br&gt;Polos magneticos&lt;br&gt;&lt;/div&gt;&lt;div&gt;&lt;br&gt;&lt;/div&gt;&lt;div&gt;Magnetica e Transiente&lt;br&gt;&lt;/div&gt;&lt;div&gt;Formato das bobinas&lt;/div&gt;&lt;div&gt;Interacao rotor stator&lt;/div&gt;&lt;div&gt;&lt;span style=&quot;white-space: pre;&quot;&gt;&#x9;&lt;/span&gt;iteracao entre duas indutancias. Reversao dos efeitos&lt;br&gt;&lt;/div&gt;&lt;div&gt;&lt;span style=&quot;white-space: pre;&quot;&gt;&#x9;&lt;/span&gt;iteracao entre dois campos magneticos&lt;/div&gt;&lt;div&gt;&lt;span style=&quot;white-space: pre;&quot;&gt;&#x9;&lt;/span&gt;&lt;br&gt;&lt;/div&gt;&lt;div&gt;&lt;br&gt;&lt;/div&gt;&lt;div&gt;Indutance&lt;/div&gt;&lt;div&gt;&lt;span style=&quot;white-space: pre;&quot;&gt;&#x9;&lt;/span&gt;Aparente&lt;/div&gt;&lt;div&gt;&lt;span style=&quot;white-space: pre;&quot;&gt;&#x9;&lt;/span&gt;Instantanea&lt;br&gt;&lt;/div&gt;&lt;div&gt;&lt;br&gt;&lt;/div&gt;&lt;br&gt;&lt;div&gt;&lt;b&gt;Leis&lt;/b&gt;&lt;/div&gt;&lt;div&gt;Bill:&lt;/div&gt;" style="text;strokeColor=none;align=left;fillColor=none;html=1;verticalAlign=middle;whiteSpace=wrap;rounded=0;" vertex="1" parent="1">
          <mxGeometry x="1104" y="-200" width="243" height="393" as="geometry" />
        </mxCell>
        <mxCell id="q3knvlEKfwuxzLqlxlKQ-5" value="&lt;div&gt;Linkage&lt;/div&gt;&lt;div&gt;Fluxo aparente&lt;/div&gt;&lt;div&gt;Fluxo * N_voltas&lt;br&gt;&lt;/div&gt;" style="whiteSpace=wrap;html=1;" vertex="1" parent="1">
          <mxGeometry x="439" y="-116" width="120" height="60" as="geometry" />
        </mxCell>
        <mxCell id="q3knvlEKfwuxzLqlxlKQ-6" value="&lt;div&gt;Leakage (vazamento)&lt;br&gt;&lt;/div&gt;&lt;div&gt;Fluxo vazado entre voltas&lt;br&gt;&lt;/div&gt;" style="whiteSpace=wrap;html=1;" vertex="1" parent="1">
          <mxGeometry x="601" y="-116" width="120" height="60" as="geometry" />
        </mxCell>
        <mxCell id="q3knvlEKfwuxzLqlxlKQ-8" value="&lt;div&gt;Faraday-Lenz&lt;/div&gt;&lt;div&gt;(dFluxo = E)&lt;br&gt;&lt;/div&gt;" style="whiteSpace=wrap;html=1;" vertex="1" parent="1">
          <mxGeometry x="138" y="256" width="120" height="60" as="geometry" />
        </mxCell>
        <mxCell id="q3knvlEKfwuxzLqlxlKQ-9" value="&lt;div&gt;Ampere&lt;/div&gt;&lt;div&gt;I gera B&lt;br&gt;&lt;/div&gt;" style="whiteSpace=wrap;html=1;" vertex="1" parent="1">
          <mxGeometry x="132" y="-9" width="120" height="60" as="geometry" />
        </mxCell>
        <mxCell id="q3knvlEKfwuxzLqlxlKQ-10" value="&lt;div&gt;Polos Magneticos&lt;/div&gt;&lt;div&gt;we = wm*p / 2&lt;br&gt;&lt;/div&gt;" style="whiteSpace=wrap;html=1;" vertex="1" parent="1">
          <mxGeometry x="-15" y="-204" width="120" height="60" as="geometry" />
        </mxCell>
        <mxCell id="q3knvlEKfwuxzLqlxlKQ-11" value="Stator" style="whiteSpace=wrap;html=1;" vertex="1" parent="1">
          <mxGeometry x="-168" y="-5" width="120" height="60" as="geometry" />
        </mxCell>
        <mxCell id="q3knvlEKfwuxzLqlxlKQ-12" value="Rotor" style="whiteSpace=wrap;html=1;" vertex="1" parent="1">
          <mxGeometry x="-170" y="204" width="120" height="60" as="geometry" />
        </mxCell>
        <mxCell id="q3knvlEKfwuxzLqlxlKQ-14" value="Sem imas" style="whiteSpace=wrap;html=1;" vertex="1" parent="1">
          <mxGeometry x="-15" y="256" width="120" height="60" as="geometry" />
        </mxCell>
        <mxCell id="q3knvlEKfwuxzLqlxlKQ-15" value="Com imas" style="whiteSpace=wrap;html=1;" vertex="1" parent="1">
          <mxGeometry x="-15" y="147" width="120" height="60" as="geometry" />
        </mxCell>
        <mxCell id="q3knvlEKfwuxzLqlxlKQ-16" value="Como funciona a Iteracao de campos magneticos?" style="whiteSpace=wrap;html=1;" vertex="1" parent="1">
          <mxGeometry x="1011" y="233" width="120" height="60" as="geometry" />
        </mxCell>
        <mxCell id="q3knvlEKfwuxzLqlxlKQ-17" value="Lei de Ampere&lt;div&gt;I gera B&lt;br&gt;&lt;/div&gt;" style="whiteSpace=wrap;html=1;" vertex="1" parent="1">
          <mxGeometry x="275" y="260" width="120" height="60" as="geometry" />
        </mxCell>
        <mxCell id="q3knvlEKfwuxzLqlxlKQ-18" value="Tenho lei de Ampere?" style="whiteSpace=wrap;html=1;" vertex="1" parent="1">
          <mxGeometry x="143" y="147" width="120" height="60" as="geometry" />
        </mxCell>
        <mxCell id="q3knvlEKfwuxzLqlxlKQ-19" value="Quantidade de Terminais" style="whiteSpace=wrap;html=1;" vertex="1" parent="1">
          <mxGeometry x="-15" y="-113" width="120" height="60" as="geometry" />
        </mxCell>
      </root>
    </mxGraphModel>
  </diagram>
</mxfile>
